<?xml version="1.0" encoding="utf-8"?>
<!-- Generator: Adobe Illustrator 22.0.0, SVG Export Plug-In . SVG Version: 6.00 Build 0)  -->
<svg version="1.1" id="Layer_1" xmlns="http://www.w3.org/2000/svg" xmlns:xlink="http://www.w3.org/1999/xlink" x="0px" y="0px"
	 viewBox="0 0 500 500" style="enable-background:new 0 0 500 500;" xml:space="preserve">
<style type="text/css">
	.st0{fill:url(#SVGID_1_);}
	.st1{fill:#29306D;}
	.st2{fill:#CB822A;}
</style>
<g>
	<g>
		<linearGradient id="SVGID_1_" gradientUnits="userSpaceOnUse" x1="311.0492" y1="314.8706" x2="311.0492" y2="85.5674">
			<stop  offset="0" style="stop-color:#F2AE22"/>
			<stop  offset="1" style="stop-color:#974521"/>
		</linearGradient>
		<path class="st0" d="M240.4,103.5c7.3-6.1,14.7-12,22-17.9c-4.4,6.3-9.4,12.4-12.2,19.6c-1.8,6.9,2.7,14,8.5,17.5
			c-3.7,2.6-7.2,5.5-10.6,8.4c5.2,2.2,10.8,3.6,15.8,6.4c7.5,4,13.5,11.1,15.3,19.5c0.8,3.4-2,6.1-4.7,7.8
			c-14.3,9.1-28.1,19.1-42,28.9c-2.6,2.5,1.9,3.4,3.6,1.9c19.8-14.2,41.8-25.3,64.8-33.4c13.8-5.1,28.9-9.1,43.6-6.2
			c32.3,6.4,63.1,19.6,90.4,38c3,2,6.2,4,8.8,6.5c-19.2-2.2-38.4-7.4-57.8-5.4c-10.6,1.4-21.8,3.7-30.2,10.7
			c-7.7,6.4-11.8,16.4-12.6,26.3c-7.1-3.9-15-7-23.3-6.9c-10.3-0.5-20.2,5.7-25.2,14.6c-1.7,3.2-3.6,6.3-5.3,9.5
			c-4.9-4.8-11.1-9-18.1-9.5c-8.3-0.9-16.2,3.1-22.4,8.2c-6.7,5.6-10.7,15-8.3,23.7c1.7,7.8,7.2,14.1,13.5,18.6
			c8.6,6.4,19.2,9.4,29.7,11c-22.5,18.6-58.1,18-80.4-0.6c-12.6-10.6-22.1-25.5-24.4-41.9c-2.3-15,1.7-30.5,9.6-43.4
			c7.9-13.2,19.4-23.9,31.6-33.1c6.3-4.4,12-9.5,17.4-15c3-3.2,6.7-6.5,7.1-11.1c0.8-5.6-6.6-11-11.5-7.5c-3.6,2.4-4.4,6.9-6.7,10.3
			c-2.7,4.4-7.1,8.4-12.6,8.7c-3.5,0.4-6.7-1.1-10-1.8c-2.6,0.1-4.6,2.2-6.6,3.6c-5,3.9-9.9,8.1-14.8,12.2
			c-1.5-4.6-4.1-9.4-2.6-14.3c1.7-5.1,6.9-7.5,10.6-10.9c12.5-11.2,19.7-26.8,26.5-41.8c4.4-9,8-18.5,13.7-26.9
			c-2.1,6.3-4.2,12.7-6.2,19c-1,3.4-2.1,6.8-2.1,10.4C228.9,113.2,234.4,108.1,240.4,103.5z M206.9,144c1.9,1,4.3,1.9,6.4,0.8
			c3.3-1.6,4.6-5.2,5.6-8.4C214.8,138.6,211,141.4,206.9,144z"/>
	</g>
	<path class="st1" d="M262.8,93.4c33.6-1,66.8,15.8,87.6,41.9c5,6.1,9.1,12.9,12.8,19.9c-8.9-2.4-18-4.6-27.2-5.6
		c-11.6,0.3-23.1,2.7-34,6.7c-6.4,2.4-12.8,4.6-19.1,7.1c0.4-0.9,0.8-1.9,1.2-2.8c0.1-1.9,0-3.7,0-5.6
		c-3.5-12.5-13.9-22.1-26.2-25.8c2.3-1.6,5.7-3.2,5.6-6.5c0.4-2.4-1.3-4.2-3.2-5.3c-3.5-2-5.7-5.9-5.8-9.9
		C256.3,102.4,260,98.1,262.8,93.4z"/>
	<path class="st1" d="M209.6,106.1c2.3-1.3,4.7-2.4,7.2-3.2c-8.2,16.8-14.6,35.3-28.5,48.4c-3.9,3.9-9.2,6.5-12,11.5
		c-2.4,4.1-2.2,9.2-0.9,13.7c1.1,3.4,1.9,7.3,4.8,9.8c2,0,4.4,0.4,5.9-1.2c5.8-4.9,11.6-9.8,17.6-14.3c0.4,0.2,1.3,0.6,1.8,0.8
		c4.5,1.1,9.3,1.7,13.8-0.1c6.9-2.4,11.4-9,14.3-15.4c0.7-1.2,1.2-3.1,2.7-3.5c1.7-0.1,3.7,1.5,3.1,3.3c-0.2,1.5-1.3,2.7-2.2,3.8
		c-5,5.8-10.7,11-16.7,15.7c-13.6,9.8-26.5,21.2-35.4,35.6c-7.7,11.9-12,26.1-12,40.3c0.7,13.5,4.9,26.8,13,37.8
		c-20.7-19.2-34.5-46.3-36.1-74.7c-2.7-27.5,6.1-55.8,23-77.6C182.9,124.2,195.5,113.7,209.6,106.1z"/>
	<g>
		<path class="st2" d="M1.9,411.1c2.5,0,4.7-0.9,6.5-2.7c1.8-1.8,2.8-4,2.9-6.5v-81c-0.1-2.5-1-4.7-2.9-6.5c-1.8-1.8-4-2.7-6.5-2.7
			H0v-1.5h32v1.5h-1.9c-3.5,0-6.2,1.5-8,4.5c-0.9,1.5-1.3,3-1.3,4.7v87.1h20.9c7.2,0,12.7-1.6,16.5-4.8c3.8-3.2,7-8,9.5-14.3h1.5
			l-8.5,23.7H0v-1.5H1.9z"/>
		<path class="st2" d="M82.5,411.3c2.4,0,4.4-0.7,6.2-2.1c1.8-1.4,2.6-3.1,2.6-5V342c0-1.9-0.9-3.6-2.6-5c-1.8-1.4-3.9-2.1-6.3-2.1
			h-1.7v-1.3h29.7v1.3h-1.7c-2.4,0-4.4,0.7-6.1,2c-1.7,1.3-2.7,2.9-2.8,4.9v62.5c0.1,1.9,1,3.6,2.8,4.9c1.8,1.4,3.8,2,6.2,2h1.7
			l0.1,1.3H80.6v-1.3H82.5z"/>
		<path class="st2" d="M203.3,334.9c-1.9,0-3.6,0.6-5,1.9c-1.4,1.3-2.2,2.8-2.2,4.7v56.1c0,5.1,0.3,9.9,0.9,14.5l0.3,2.4h-1.2
			l-68.4-64.9v54.9c0,1.9,0.7,3.6,2.1,4.9c1.4,1.3,3.1,2,5.1,2h2.2v1.3h-24.9v-1.3h2.2c2,0,3.7-0.7,5.1-2c1.4-1.3,2.1-2.9,2.1-4.9
			v-56.3c0-5.4-0.3-10.1-0.9-14.3l-0.3-2.1l1.4,0.1l68.3,64.4v-54.6c-0.2-1.8-1-3.4-2.4-4.7c-1.4-1.3-3.1-1.9-5-1.9h-2.2v-1.3h24.9
			v1.3H203.3z"/>
		<path class="st1" d="M217.7,403.2c-7.8-7.4-11.6-17.4-11.6-30.2c0-12.8,3.9-22.8,11.6-30.2c7.8-7.4,18.4-11.1,31.8-11.1
			c5.4,0,10.9,0.7,16.5,2.1c5.5,1.4,10.3,3.3,14.3,5.8l2.9,18.7H282c-3.8-15.1-14.7-22.6-32.6-22.6c-10.4,0-18.7,3.3-24.7,10
			c-6.1,6.7-9.1,15.8-9.1,27.4c0,7.5,1.4,14.1,4.1,19.7c2.7,5.6,6.7,9.9,11.8,13c5.2,3.1,11.2,4.6,18,4.6c6.8,0,12.8-1,18-3.1
			c5.1-2.1,9.4-5.5,12.8-10.2c3.4-4.7,5.3-10.6,5.7-17.6h1.2l-1.4,18c-3.4,5.3-8.4,9.4-14.9,12.4c-6.5,3-13.6,4.5-21.3,4.5
			C236.1,414.3,225.5,410.6,217.7,403.2z"/>
		<path class="st1" d="M369.2,411.3h1.1v1.3h-27v-1.3h1.1c1.7,0,2.9-0.6,3.8-1.7c0.9-1.1,1.3-2.2,1.3-3.2c0-1-0.2-2-0.5-3l-7.2-17.5
			h-33.3l-7.2,17.1c-0.4,1.1-0.7,2.2-0.7,3.2c0,1,0.4,2.1,1.3,3.3c0.9,1.2,2.2,1.8,3.9,1.8h1.1v1.3h-25.1v-1.3h1.1
			c1.8,0,3.7-0.6,5.6-1.9c1.9-1.3,3.4-3.2,4.7-5.7c19.2-41.1,29.2-62.6,30-64.5c1.5-3.7,2.3-6.1,2.4-7.4h1.2l32.5,71.9
			C361.6,408.7,364.9,411.3,369.2,411.3z M310.1,381.9h30l-14.7-36.1L310.1,381.9z"/>
		<path class="st1" d="M391.4,337.7h-7v66.5c0.1,2.7,1.3,4.8,3.7,6.2c1.1,0.6,2.4,0.9,3.8,0.9h1.7l0.1,1.3h-27v-1.3h1.8
			c2,0,3.8-0.7,5.2-2c1.4-1.4,2.2-3,2.2-4.9v-62.5c0-1.9-0.7-3.6-2.2-4.9c-1.4-1.3-3.2-2-5.2-2h-1.8v-1.3h33
			c8.2,0,14.8,1.9,19.5,5.7c4.8,3.8,7.2,8.7,7.2,14.9c0,6.1-1.9,11.3-5.8,15.4c-3.9,4.1-8.8,6.5-14.7,7.1c2.8,1.2,6.2,4.7,10.1,10.3
			c-0.1,0,1.4,1.9,4.5,5.8c3.1,3.9,5.6,6.9,7.5,9c1.9,2.2,3.4,3.8,4.7,4.9c3.2,3.1,7,4.6,11.2,4.6v1.3H440c-6.9,0-12.4-1.4-16.3-4.1
			c-3-2-5.7-4.5-8.2-7.5c-0.5-0.7-2.7-3.8-6.6-9.3c-3.9-5.5-6-8.4-6.3-8.8c-4.7-5.9-9.2-8.8-13.3-8.8v-1.3c10.3,0,16.5-0.5,18.6-1.6
			c2.9-1.5,4.9-3.1,5.9-4.7c2.2-3.5,3.3-7.4,3.3-11.6c0-5.4-1.6-9.5-4.7-12.4c-3.2-2.9-7.4-4.5-12.8-4.7
			C397.2,337.7,394.5,337.7,391.4,337.7z"/>
		<path class="st1" d="M441.2,411.3c2.1,0,3.9-0.7,5.3-2c1.4-1.4,2.2-3,2.3-4.9v-62.5c0-1.9-0.7-3.6-2.2-4.9c-1.5-1.3-3.3-2-5.4-2
			h-1.8v-1.3h38.4c3.6,0,6.8-0.3,9.5-0.8c2.7-0.5,4.5-1,5.3-1.3v15l-1.4-0.1v-2c0-1.8-0.6-3.4-1.8-4.7c-1.2-1.3-2.8-2-4.7-2h-27.4
			v33.4h22.5c1.8,0,3.1-0.5,4-1.6c0.9-1.1,1.4-2.4,1.4-3.9v-1.7h1.4v18.4H485v-1.7c0-2.5-0.9-4.1-2.8-5c-0.7-0.3-1.4-0.4-2.2-0.5
			h-22.9v33.4h20.7c4,0,7.4-0.7,10.2-2.1c2.8-1.4,4.9-3.1,6.3-5c1.4-1.9,2.9-4.5,4.4-7.6h1.3l-7.2,18.8h-53.4v-1.3H441.2z"/>
	</g>
</g>
</svg>
