<?xml version="1.0" encoding="utf-8"?>
<!-- Generator: Adobe Illustrator 22.0.0, SVG Export Plug-In . SVG Version: 6.00 Build 0)  -->
<svg version="1.1" id="Layer_1" xmlns="http://www.w3.org/2000/svg" xmlns:xlink="http://www.w3.org/1999/xlink" x="0px" y="0px"
	 viewBox="0 0 552 136.1" style="enable-background:new 0 0 552 136.1;" xml:space="preserve">
<style type="text/css">
	.st0{fill:#414141;}
	.st1{fill:#F16522;}
	.st2{enable-background:new    ;}
</style>
<polygon class="st0" points="402.2,24.6 402.2,39.1 385.1,39.1 385.1,87.9 363.3,87.9 363.3,24.6 "/>
<path class="st0" d="M351.6,24.6v63.3h-48.8c-8,0-14.6-6.5-14.6-14.6V24.6h21.8v48.7h19.6V24.6H351.6z"/>
<path class="st0" d="M477.1,24.6v63.3h-48.8c-8,0-14.6-6.5-14.6-14.6V24.6h21.8v48.7h19.6V24.6H477.1z"/>
<polygon class="st1" points="71.5,14.6 71.5,0 46.7,0 24.8,0 0,0 0,14.6 24.8,14.6 24.8,87.9 46.7,87.9 46.7,14.6 "/>
<polygon class="st1" points="276.6,24.5 259.9,24.5 259.9,0 238.1,0 238.1,24.5 221.4,24.5 221.4,39.1 238.1,39.1 238.1,87.9 
	259.9,87.9 259.9,39.1 276.6,39.1 "/>
<path class="st1" d="M146.5,39.1v9.8c0,8,6.5,14.5,14.5,14.6h26.9v9.8h-41.5v14.6h48.8c8,0,14.6-6.5,14.6-14.6v-9.8
	c0-8-6.5-14.6-14.6-14.6h-26.9v-9.8h41.5V24.6H161C153,24.6,146.5,31.1,146.5,39.1z"/>
<path class="st1" d="M120.2,24.6H86.1c-8,0-14.6,6.5-14.6,14.5c0,0,0,0,0,0.1v34.2c0,8,6.5,14.5,14.5,14.6c0,0,0,0,0.1,0h48.7V73.3
	H93.3v-9.8h26.9c8,0,14.6-6.5,14.6-14.6v-9.8C134.8,31.1,128.3,24.6,120.2,24.6C120.3,24.5,120.2,24.5,120.2,24.6z M113,48.9H93.3
	v-9.8h19.6L113,48.9z"/>
<g class="st2">
	<path class="st0" d="M41.2,111.6h-6.2v17.2h-2.6v-17.2h-6.2v-2h14.9V111.6z"/>
	<path class="st0" d="M74.3,119.8h-8.8v6.9h10.1v2H63v-19.2h12.6v2h-10v6.2h8.8V119.8z"/>
	<path class="st0" d="M108.1,123.9c0-0.9-0.3-1.6-1-2.2c-0.7-0.6-1.8-1.1-3.5-1.5c-2-0.5-3.6-1.2-4.8-2.1c-1.1-0.9-1.7-2.1-1.7-3.6
		c0-1.5,0.6-2.7,1.8-3.8c1.2-1,2.8-1.5,4.8-1.5c2.1,0,3.8,0.6,5,1.7s1.8,2.5,1.8,4l0,0.1H108c0-1.1-0.4-2-1.1-2.7s-1.8-1-3.2-1
		c-1.3,0-2.3,0.3-3,0.9c-0.7,0.6-1,1.3-1,2.3c0,0.8,0.4,1.5,1.1,2.1c0.7,0.6,2,1,3.6,1.5c2,0.5,3.6,1.2,4.6,2.2s1.6,2.2,1.6,3.6
		c0,1.5-0.6,2.8-1.9,3.7s-2.9,1.4-5,1.4c-1.9,0-3.6-0.5-5.1-1.6c-1.5-1-2.2-2.4-2.1-4.2l0-0.1h2.5c0,1.2,0.5,2.2,1.4,2.8s2,1,3.4,1
		c1.3,0,2.3-0.3,3.1-0.8C107.7,125.6,108.1,124.8,108.1,123.9z"/>
	<path class="st0" d="M146.4,111.6h-6.2v17.2h-2.6v-17.2h-6.2v-2h14.9V111.6z"/>
	<path class="st0" d="M196.4,128.7h-2.6v-19.2h2.6V128.7z"/>
	<path class="st0" d="M231.6,119.8h-8.8v6.9H233v2h-12.7v-19.2h12.6v2h-10v6.2h8.8V119.8z"/>
</g>
<g class="st2">
	<path class="st0" d="M257.5,126.7h9.1v2h-11.7v-19.2h2.6V126.7z"/>
</g>
<g class="st2">
	<path class="st0" d="M298.7,111.6h-6.2v17.2h-2.6v-17.2h-6.2v-2h14.9V111.6z"/>
</g>
<g class="st2">
	<path class="st0" d="M330.6,123.9c0-0.9-0.3-1.6-1-2.2c-0.7-0.6-1.8-1.1-3.5-1.5c-2-0.5-3.6-1.2-4.8-2.1c-1.1-0.9-1.7-2.1-1.7-3.6
		c0-1.5,0.6-2.7,1.8-3.8c1.2-1,2.8-1.5,4.8-1.5c2.1,0,3.8,0.6,5,1.7c1.2,1.2,1.8,2.5,1.8,4l0,0.1h-2.5c0-1.1-0.4-2-1.1-2.7
		c-0.7-0.7-1.8-1-3.2-1c-1.3,0-2.3,0.3-3,0.9c-0.7,0.6-1,1.3-1,2.3c0,0.8,0.4,1.5,1.1,2.1c0.7,0.6,2,1,3.6,1.5
		c2,0.5,3.6,1.2,4.6,2.2s1.6,2.2,1.6,3.6c0,1.5-0.6,2.8-1.9,3.7s-2.9,1.4-5,1.4c-1.9,0-3.6-0.5-5.1-1.6c-1.5-1-2.2-2.4-2.1-4.2
		l0-0.1h2.5c0,1.2,0.5,2.2,1.4,2.8s2,1,3.4,1c1.3,0,2.3-0.3,3.1-0.8C330.3,125.6,330.6,124.8,330.6,123.9z"/>
	<path class="st0" d="M396.1,128.7h-2.6l-9.2-14.8l-0.1,0v14.8h-2.6v-19.2h2.6l9.2,14.8l0.1,0v-14.8h2.6V128.7z"/>
	<path class="st0" d="M434.2,120.8c0,2.3-0.7,4.3-2.2,5.8c-1.5,1.5-3.3,2.3-5.7,2.3c-2.2,0-4.1-0.8-5.5-2.3
		c-1.4-1.5-2.1-3.5-2.1-5.8v-3.4c0-2.3,0.7-4.3,2.1-5.8c1.4-1.6,3.2-2.3,5.5-2.3c2.3,0,4.2,0.8,5.7,2.3c1.5,1.6,2.2,3.5,2.2,5.8
		V120.8z M431.6,117.4c0-1.8-0.5-3.2-1.4-4.3s-2.2-1.7-3.8-1.7c-1.5,0-2.7,0.6-3.6,1.7c-0.9,1.1-1.4,2.6-1.4,4.3v3.4
		c0,1.8,0.5,3.2,1.4,4.4c0.9,1.1,2.1,1.7,3.6,1.7c1.6,0,2.9-0.6,3.8-1.7c0.9-1.1,1.4-2.6,1.4-4.4V117.4z"/>
	<path class="st0" d="M460.9,122.1l0.4,2.4l0.1,0l0.5-2.4l3.5-12.6h2.3l3.5,12.6l0.5,2.5h0.1l0.4-2.5l2.9-12.6h2.6l-4.6,19.2h-2.3
		l-3.8-13.3l-0.3-1.7h-0.1l-0.3,1.7l-3.8,13.3H460l-4.6-19.2h2.6L460.9,122.1z"/>
</g>
<g class="st2">
	<path class="st0" d="M489.2,43.9V24.7h6.3c2,0,3.6,0.4,4.7,1.3c1.1,0.9,1.7,2.2,1.7,3.9c0,0.9-0.3,1.6-0.8,2.3
		c-0.5,0.7-1.3,1.2-2.1,1.5c1.2,0.2,2.1,0.8,2.7,1.7c0.7,0.9,1,1.9,1,3.1c0,1.8-0.6,3.1-1.7,4c-1.1,0.9-2.7,1.4-4.6,1.4H489.2z
		 M491.8,32.9h4.2c1,0,1.8-0.3,2.4-0.8c0.6-0.5,0.9-1.3,0.9-2.2c0-1-0.3-1.8-1-2.3c-0.7-0.5-1.6-0.8-2.8-0.8h-3.7V32.9z M491.8,34.9
		v6.9h4.5c1.2,0,2.1-0.3,2.8-0.9s1-1.4,1-2.5c0-1.1-0.3-2-0.8-2.6c-0.5-0.6-1.4-1-2.5-1H491.8z"/>
</g>
<g class="st2">
	<path class="st0" d="M517.9,35h-8.8v6.9h10.1v2h-12.7V24.7h12.6v2h-10V33h8.8V35z"/>
</g>
<g class="st2">
	<path class="st0" d="M535.5,26.8h-6.2v17.2h-2.6V26.8h-6.2v-2h14.9V26.8z"/>
</g>
<g class="st2">
	<path class="st0" d="M547.3,39h-8l-1.8,4.9h-2.7l7.4-19.2h2.2l7.3,19.2h-2.6L547.3,39z M540.1,36.8h6.5l-3.2-8.7h-0.1L540.1,36.8z"
		/>
</g>
</svg>
