<svg xmlns="http://www.w3.org/2000/svg" viewBox="0 0 115.26 21.22"><defs><style>.cls-1{fill:#424242;}.cls-2{fill:#f06724;}</style></defs><title>Asset 1</title><g id="Layer_2" data-name="Layer 2"><g id="Layer_1-2" data-name="Layer 1"><polygon class="cls-1" points="97.15 5.93 97.15 9.45 93.02 9.45 93.02 21.22 87.75 21.22 87.75 5.93 97.15 5.93"/><path class="cls-1" d="M84.93,5.93V21.22H73.15a3.52,3.52,0,0,1-3.52-3.52V5.93h5.28V17.7h4.74V5.93Z"/><path class="cls-1" d="M115.26,5.93V21.22H103.48A3.52,3.52,0,0,1,100,17.7V5.93h5.28V17.7H110V5.93Z"/><polygon class="cls-2" points="17.27 3.52 17.27 0 11.27 0 6 0 0 0 0 3.52 6 3.52 6 21.22 11.27 21.22 11.27 3.52 17.27 3.52"/><polygon class="cls-2" points="66.81 5.93 62.79 5.93 62.79 0 57.51 0 57.51 5.93 53.49 5.93 53.49 9.45 57.51 9.45 57.51 21.22 62.79 21.22 62.79 9.45 66.81 9.45 66.81 5.93"/><path class="cls-2" d="M35.38,9.45v2.37a3.52,3.52,0,0,0,3.52,3.52h6.5V17.7h-10v3.52H47.16a3.52,3.52,0,0,0,3.52-3.52V15.33a3.52,3.52,0,0,0-3.52-3.52h-6.5V9.45h10V5.93H38.89A3.52,3.52,0,0,0,35.38,9.45Z"/><path class="cls-2" d="M29,5.93H20.79a3.51,3.51,0,0,0-3.52,3.52V17.7a3.51,3.51,0,0,0,3.52,3.52H32.56V17.7h-10V15.33H29a3.52,3.52,0,0,0,3.52-3.52V9.45A3.51,3.51,0,0,0,29,5.93Zm-1.76,5.89H22.55V9.45h4.74Z"/></g></g></svg>